<svg xmlns="http://www.w3.org/2000/svg" xmlns:xlink="http://www.w3.org/1999/xlink" width="1366" zoomAndPan="magnify" viewBox="0 0 1024.5 576" height="768" preserveAspectRatio="xMidYMid meet" version="1.0"><defs><g/><clipPath id="b52e5d6618"><path d="M 0 0.140625 L 1024 0.140625 L 1024 575.859375 L 0 575.859375 Z M 0 0.140625 " clip-rule="nonzero"/></clipPath><clipPath id="34750b2f5a"><path d="M 521.160156 0.140625 L 1024 0.140625 L 1024 575.859375 L 521.160156 575.859375 Z M 521.160156 0.140625 " clip-rule="nonzero"/></clipPath><clipPath id="d88988ea4a"><path d="M 158 229 L 367.742188 229 L 367.742188 439 L 158 439 Z M 158 229 " clip-rule="nonzero"/></clipPath><clipPath id="eabcb007f4"><path d="M 200 380 L 323 380 L 323 458.941406 L 200 458.941406 Z M 200 380 " clip-rule="nonzero"/></clipPath></defs><g clip-path="url(#b52e5d6618)"><path fill="#ffffff" d="M 0 0.140625 L 1024 0.140625 L 1024 575.859375 L 0 575.859375 Z M 0 0.140625 " fill-opacity="1" fill-rule="nonzero"/><path fill="#9984eb" d="M 0 0.140625 L 1024 0.140625 L 1024 575.859375 L 0 575.859375 Z M 0 0.140625 " fill-opacity="1" fill-rule="nonzero"/></g><g clip-path="url(#34750b2f5a)"><path fill="#7b58f1" d="M 521.160156 0.140625 L 1024 0.140625 L 1024 577.621094 L 521.160156 577.621094 Z M 521.160156 0.140625 " fill-opacity="1" fill-rule="nonzero"/></g><g clip-path="url(#d88988ea4a)"><path fill="#eec124" d="M 263.863281 229.40625 C 206.234375 228.820312 159.039062 275.09375 158.449219 332.765625 C 157.859375 390.433594 204.101562 437.664062 261.730469 438.25 C 319.363281 438.839844 366.550781 392.566406 367.144531 334.898438 C 367.734375 277.222656 321.496094 229.992188 263.863281 229.402344 " fill-opacity="1" fill-rule="nonzero"/></g><g clip-path="url(#eabcb007f4)"><path fill="#ffffff" d="M 322.605469 439.164062 C 317.402344 442.964844 311.828125 446.285156 305.949219 449.050781 C 305.058594 449.476562 304.152344 449.882812 303.25 450.273438 C 290.480469 455.84375 276.351562 458.878906 261.523438 458.726562 C 246.6875 458.570312 232.632812 455.253906 219.976562 449.421875 C 219.078125 449.011719 218.179688 448.585938 217.304688 448.144531 C 211.476562 445.253906 205.96875 441.824219 200.851562 437.917969 C 201.960938 417.738281 212.867188 400.21875 228.839844 389.964844 C 238.492188 383.769531 250 380.230469 262.320312 380.351562 C 264.199219 380.371094 266.0625 380.476562 267.894531 380.664062 C 278.085938 381.6875 287.527344 385.230469 295.601562 390.648438 C 302.859375 395.515625 309.003906 401.90625 313.59375 409.347656 C 318.984375 418.078125 322.226562 428.265625 322.605469 439.164062 " fill-opacity="1" fill-rule="nonzero"/></g><path fill="#ba5c21" d="M 295.59375 390.648438 C 294.597656 397.679688 291.429688 404.015625 286.785156 408.933594 C 280.566406 415.542969 271.714844 419.632812 261.921875 419.535156 C 246.234375 419.375 233.164062 408.503906 229.570312 393.925781 C 229.25 392.636719 229.003906 391.316406 228.839844 389.964844 C 238.492188 383.769531 249.996094 380.230469 262.320312 380.355469 C 264.199219 380.375 266.0625 380.476562 267.894531 380.664062 C 268.214844 380.695312 268.53125 380.730469 268.84375 380.769531 C 269.042969 380.789062 269.238281 380.808594 269.429688 380.84375 C 269.648438 380.863281 269.867188 380.894531 270.082031 380.929688 C 270.214844 380.941406 270.351562 380.960938 270.484375 380.980469 C 270.679688 381.007812 270.878906 381.042969 271.078125 381.066406 C 271.230469 381.09375 271.382812 381.121094 271.542969 381.140625 C 271.675781 381.160156 271.808594 381.179688 271.941406 381.214844 C 272.167969 381.246094 272.386719 381.289062 272.613281 381.320312 C 273.574219 381.5 274.539062 381.699219 275.488281 381.917969 C 275.703125 381.964844 275.914062 382.019531 276.128906 382.066406 C 276.246094 382.097656 276.367188 382.125 276.484375 382.164062 C 276.710938 382.21875 276.945312 382.273438 277.164062 382.339844 C 277.203125 382.339844 277.238281 382.351562 277.261719 382.359375 C 277.550781 382.429688 277.835938 382.503906 278.113281 382.589844 C 278.417969 382.671875 278.710938 382.757812 279.003906 382.84375 C 279.34375 382.941406 279.675781 383.042969 280.015625 383.148438 C 280.273438 383.230469 280.53125 383.316406 280.792969 383.402344 C 280.957031 383.453125 281.125 383.515625 281.285156 383.566406 C 281.554688 383.660156 281.828125 383.753906 282.09375 383.847656 C 282.425781 383.96875 282.75 384.082031 283.070312 384.207031 C 283.097656 384.21875 283.117188 384.226562 283.136719 384.234375 C 283.476562 384.351562 283.808594 384.484375 284.140625 384.613281 C 284.386719 384.71875 284.632812 384.8125 284.882812 384.917969 C 285.542969 385.191406 286.179688 385.464844 286.816406 385.75 C 287.097656 385.882812 287.375 386.007812 287.648438 386.140625 C 287.902344 386.253906 288.152344 386.375 288.40625 386.5 C 288.632812 386.613281 288.859375 386.71875 289.085938 386.839844 C 289.296875 386.9375 289.503906 387.050781 289.707031 387.160156 C 289.839844 387.226562 289.972656 387.292969 290.105469 387.363281 C 290.660156 387.652344 291.195312 387.949219 291.722656 388.25 C 291.914062 388.355469 292.113281 388.476562 292.300781 388.582031 C 292.417969 388.65625 292.539062 388.722656 292.660156 388.789062 L 293.109375 389.058594 C 293.261719 389.152344 293.417969 389.253906 293.570312 389.347656 C 293.660156 389.40625 293.761719 389.464844 293.863281 389.527344 C 294.148438 389.699219 294.425781 389.871094 294.699219 390.058594 C 295.003906 390.25 295.304688 390.449219 295.59375 390.648438 " fill-opacity="1" fill-rule="nonzero"/><path fill="#ba5c21" d="M 277.328125 363.78125 L 277.03125 392.988281 C 276.953125 400.378906 270.851562 406.367188 263.46875 406.296875 L 260.640625 406.261719 C 253.257812 406.1875 247.285156 400.078125 247.363281 392.691406 L 247.664062 363.480469 C 247.734375 356.09375 253.835938 350.117188 261.21875 350.195312 L 264.042969 350.222656 C 271.421875 350.296875 277.402344 356.398438 277.328125 363.78125 " fill-opacity="1" fill-rule="nonzero"/><path fill="#9e392b" d="M 277.328125 363.78125 L 277.171875 379.238281 C 272.730469 381.652344 268.042969 383.03125 263.289062 382.976562 C 257.6875 382.921875 252.359375 381.308594 247.511719 378.542969 L 247.664062 363.480469 C 247.734375 356.09375 253.835938 350.117188 261.21875 350.195312 L 264.042969 350.222656 C 271.421875 350.296875 277.402344 356.398438 277.328125 363.78125 " fill-opacity="1" fill-rule="nonzero"/><path fill="#ba5c21" d="M 298.777344 352.742188 C 298.777344 352.742188 305.753906 350.441406 310.28125 342.742188 C 315.191406 334.371094 312.214844 329.089844 311.269531 327.945312 C 308.683594 324.816406 304.632812 326.769531 303.960938 327.867188 C 303.28125 328.972656 293.484375 346.359375 298.777344 352.742188 " fill-opacity="1" fill-rule="nonzero"/><path fill="#9e392b" d="M 305.828125 330.648438 C 305.828125 330.648438 310.226562 331.257812 308.613281 337.449219 C 306.996094 343.640625 302.898438 346.054688 297.328125 349.171875 C 291.761719 352.285156 300.273438 331.851562 305.828125 330.648438 " fill-opacity="1" fill-rule="nonzero"/><path fill="#ba5c21" d="M 228.242188 352.015625 C 228.242188 352.015625 221.3125 349.578125 216.953125 341.785156 C 212.207031 333.3125 215.289062 328.101562 216.261719 326.976562 C 218.90625 323.898438 222.917969 325.933594 223.570312 327.050781 C 224.222656 328.160156 233.667969 345.746094 228.242188 352.015625 " fill-opacity="1" fill-rule="nonzero"/><path fill="#9e392b" d="M 221.648438 329.789062 C 221.648438 329.789062 217.238281 330.308594 218.726562 336.53125 C 220.207031 342.75 224.261719 345.25 229.761719 348.480469 C 235.269531 351.703125 227.171875 331.105469 221.648438 329.789062 " fill-opacity="1" fill-rule="nonzero"/><path fill="#351f16" d="M 222.339844 276.5 C 222.640625 281.316406 221.882812 325.691406 221.882812 325.691406 L 305.867188 326.550781 C 305.867188 326.550781 310.699219 288.039062 306.367188 277.691406 C 302.035156 267.339844 297.933594 277.273438 297.933594 277.273438 C 297.933594 277.273438 292.148438 268.175781 278.246094 274.074219 C 278.246094 274.074219 276.105469 268.289062 267.125 270.085938 C 267.125 270.085938 256.597656 259.558594 250.195312 268.136719 C 250.195312 268.136719 240.640625 260.722656 236.574219 268.664062 C 236.574219 268.664062 221.515625 263.523438 222.339844 276.5 " fill-opacity="1" fill-rule="nonzero"/><path fill="#ba5c21" d="M 305.867188 326.550781 C 306.128906 301.0625 287.535156 280.210938 264.347656 279.980469 C 241.152344 279.738281 222.140625 300.207031 221.882812 325.691406 C 221.625 351.179688 240.148438 378.015625 263.335938 378.25 C 285.136719 378.476562 305.609375 351.824219 305.867188 326.550781 " fill-opacity="1" fill-rule="nonzero"/><path fill="#351f16" d="M 305.660156 287.660156 L 269.0625 274.980469 L 265.304688 274.945312 L 263.402344 274.917969 L 259.640625 274.886719 L 222.792969 286.808594 L 221.796875 325.691406 C 222.757812 317.050781 230.535156 294.535156 237.800781 298.265625 C 243.710938 301.296875 257.960938 302.660156 263.109375 303.066406 L 263.109375 303.179688 C 263.109375 303.179688 263.457031 303.164062 264.0625 303.132812 C 264.664062 303.179688 265.011719 303.199219 265.011719 303.199219 L 265.019531 303.085938 C 270.175781 302.785156 284.453125 301.714844 290.414062 298.804688 C 297.761719 295.226562 305.078125 317.886719 305.867188 326.550781 L 305.660156 287.660156 " fill-opacity="1" fill-rule="nonzero"/><g fill="#ffffff" fill-opacity="1"><g transform="translate(66.187294, 144.927285)"><g><path d="M 48.625 0 L 39.78125 0 L 35.5 -25.109375 L 28.375 0 L 20.515625 0 L 13.390625 -25.109375 L 9.109375 0 L 0.265625 0 L 7.328125 -36.40625 L 16.875 -36.40625 L 24.46875 -10.875 L 32.015625 -36.40625 L 41.546875 -36.40625 Z M 48.625 0 "/></g></g></g><g fill="#ffffff" fill-opacity="1"><g transform="translate(125.778047, 144.927285)"><g><path d="M 31.328125 -18.265625 C 31.328125 -20.148438 30.828125 -21.90625 29.828125 -23.53125 C 28.828125 -25.15625 27.515625 -26.46875 25.890625 -27.46875 C 24.265625 -28.46875 22.503906 -28.96875 20.609375 -28.96875 C 18.753906 -28.96875 17.003906 -28.46875 15.359375 -27.46875 C 13.722656 -26.46875 12.40625 -25.15625 11.40625 -23.53125 C 10.40625 -21.90625 9.90625 -20.148438 9.90625 -18.265625 C 9.90625 -16.398438 10.40625 -14.644531 11.40625 -13 C 12.40625 -11.363281 13.722656 -10.035156 15.359375 -9.015625 C 17.003906 -8.003906 18.753906 -7.5 20.609375 -7.5 C 22.503906 -7.5 24.265625 -8.003906 25.890625 -9.015625 C 27.515625 -10.035156 28.828125 -11.363281 29.828125 -13 C 30.828125 -14.644531 31.328125 -16.398438 31.328125 -18.265625 Z M 39.359375 -18.203125 C 39.359375 -15.703125 38.859375 -13.316406 37.859375 -11.046875 C 36.859375 -8.785156 35.492188 -6.789062 33.765625 -5.0625 C 32.035156 -3.332031 30.046875 -1.96875 27.796875 -0.96875 C 25.546875 0.03125 23.148438 0.53125 20.609375 0.53125 C 18.117188 0.53125 15.738281 0.03125 13.46875 -0.96875 C 11.195312 -1.96875 9.195312 -3.332031 7.46875 -5.0625 C 5.738281 -6.789062 4.375 -8.785156 3.375 -11.046875 C 2.375 -13.316406 1.875 -15.703125 1.875 -18.203125 C 1.875 -20.734375 2.375 -23.125 3.375 -25.375 C 4.375 -27.625 5.738281 -29.613281 7.46875 -31.34375 C 9.195312 -33.082031 11.195312 -34.453125 13.46875 -35.453125 C 15.738281 -36.453125 18.117188 -36.953125 20.609375 -36.953125 C 23.148438 -36.953125 25.546875 -36.453125 27.796875 -35.453125 C 30.046875 -34.453125 32.035156 -33.082031 33.765625 -31.34375 C 35.492188 -29.613281 36.859375 -27.625 37.859375 -25.375 C 38.859375 -23.125 39.359375 -20.734375 39.359375 -18.203125 Z M 39.359375 -18.203125 "/></g></g></g><g fill="#ffffff" fill-opacity="1"><g transform="translate(177.71275, 144.927285)"><g><path d="M 11.140625 -7.390625 L 13.546875 -7.390625 C 15.617188 -7.390625 17.429688 -7.867188 18.984375 -8.828125 C 20.535156 -9.796875 21.75 -11.097656 22.625 -12.734375 C 23.5 -14.378906 23.9375 -16.203125 23.9375 -18.203125 C 23.9375 -20.242188 23.5 -22.070312 22.625 -23.6875 C 21.75 -25.3125 20.535156 -26.597656 18.984375 -27.546875 C 17.429688 -28.492188 15.617188 -28.96875 13.546875 -28.96875 L 11.140625 -28.96875 Z M 3.21875 -36.40625 L 14.03125 -36.40625 C 16.601562 -36.40625 18.984375 -35.941406 21.171875 -35.015625 C 23.367188 -34.085938 25.285156 -32.800781 26.921875 -31.15625 C 28.566406 -29.519531 29.84375 -27.59375 30.75 -25.375 C 31.664062 -23.164062 32.125 -20.773438 32.125 -18.203125 C 32.125 -15.628906 31.664062 -13.234375 30.75 -11.015625 C 29.84375 -8.804688 28.578125 -6.878906 26.953125 -5.234375 C 25.335938 -3.597656 23.421875 -2.316406 21.203125 -1.390625 C 18.992188 -0.460938 16.601562 0 14.03125 0 L 3.21875 0 Z M 3.21875 -36.40625 "/></g></g></g><g fill="#ffffff" fill-opacity="1"><g transform="translate(222.419727, 144.927285)"><g><path d="M 23.03125 -13.921875 L 18.421875 -26.875 L 13.8125 -13.921875 Z M 36.625 0 L 28 0 L 25.375 -7.328125 L 11.515625 -7.328125 L 8.890625 0 L 0.265625 0 L 15.046875 -36.40625 L 21.84375 -36.40625 Z M 36.625 0 "/></g></g></g><g fill="#ffffff" fill-opacity="1"><g transform="translate(270.017794, 144.927285)"><g><path d="M 3.21875 0 L 3.21875 -36.40625 L 11.25 -36.40625 L 11.25 -7.28125 L 24.3125 -7.28125 L 24.3125 0 Z M 3.21875 0 "/></g></g></g><g fill="#ffffff" fill-opacity="1"><g transform="translate(306.908098, 144.927285)"><g><path d="M 31.328125 -18.265625 C 31.328125 -20.148438 30.828125 -21.90625 29.828125 -23.53125 C 28.828125 -25.15625 27.515625 -26.46875 25.890625 -27.46875 C 24.265625 -28.46875 22.503906 -28.96875 20.609375 -28.96875 C 18.753906 -28.96875 17.003906 -28.46875 15.359375 -27.46875 C 13.722656 -26.46875 12.40625 -25.15625 11.40625 -23.53125 C 10.40625 -21.90625 9.90625 -20.148438 9.90625 -18.265625 C 9.90625 -16.398438 10.40625 -14.644531 11.40625 -13 C 12.40625 -11.363281 13.722656 -10.035156 15.359375 -9.015625 C 17.003906 -8.003906 18.753906 -7.5 20.609375 -7.5 C 22.503906 -7.5 24.265625 -8.003906 25.890625 -9.015625 C 27.515625 -10.035156 28.828125 -11.363281 29.828125 -13 C 30.828125 -14.644531 31.328125 -16.398438 31.328125 -18.265625 Z M 39.359375 -18.203125 C 39.359375 -15.703125 38.859375 -13.316406 37.859375 -11.046875 C 36.859375 -8.785156 35.492188 -6.789062 33.765625 -5.0625 C 32.035156 -3.332031 30.046875 -1.96875 27.796875 -0.96875 C 25.546875 0.03125 23.148438 0.53125 20.609375 0.53125 C 18.117188 0.53125 15.738281 0.03125 13.46875 -0.96875 C 11.195312 -1.96875 9.195312 -3.332031 7.46875 -5.0625 C 5.738281 -6.789062 4.375 -8.785156 3.375 -11.046875 C 2.375 -13.316406 1.875 -15.703125 1.875 -18.203125 C 1.875 -20.734375 2.375 -23.125 3.375 -25.375 C 4.375 -27.625 5.738281 -29.613281 7.46875 -31.34375 C 9.195312 -33.082031 11.195312 -34.453125 13.46875 -35.453125 C 15.738281 -36.453125 18.117188 -36.953125 20.609375 -36.953125 C 23.148438 -36.953125 25.546875 -36.453125 27.796875 -35.453125 C 30.046875 -34.453125 32.035156 -33.082031 33.765625 -31.34375 C 35.492188 -29.613281 36.859375 -27.625 37.859375 -25.375 C 38.859375 -23.125 39.359375 -20.734375 39.359375 -18.203125 Z M 39.359375 -18.203125 "/></g></g></g><g fill="#ffffff" fill-opacity="1"><g transform="translate(358.842811, 144.927285)"><g><path d="M 31.328125 -18.265625 C 31.328125 -20.148438 30.828125 -21.90625 29.828125 -23.53125 C 28.828125 -25.15625 27.515625 -26.46875 25.890625 -27.46875 C 24.265625 -28.46875 22.503906 -28.96875 20.609375 -28.96875 C 18.753906 -28.96875 17.003906 -28.46875 15.359375 -27.46875 C 13.722656 -26.46875 12.40625 -25.15625 11.40625 -23.53125 C 10.40625 -21.90625 9.90625 -20.148438 9.90625 -18.265625 C 9.90625 -16.398438 10.40625 -14.644531 11.40625 -13 C 12.40625 -11.363281 13.722656 -10.035156 15.359375 -9.015625 C 17.003906 -8.003906 18.753906 -7.5 20.609375 -7.5 C 22.503906 -7.5 24.265625 -8.003906 25.890625 -9.015625 C 27.515625 -10.035156 28.828125 -11.363281 29.828125 -13 C 30.828125 -14.644531 31.328125 -16.398438 31.328125 -18.265625 Z M 39.359375 -18.203125 C 39.359375 -15.703125 38.859375 -13.316406 37.859375 -11.046875 C 36.859375 -8.785156 35.492188 -6.789062 33.765625 -5.0625 C 32.035156 -3.332031 30.046875 -1.96875 27.796875 -0.96875 C 25.546875 0.03125 23.148438 0.53125 20.609375 0.53125 C 18.117188 0.53125 15.738281 0.03125 13.46875 -0.96875 C 11.195312 -1.96875 9.195312 -3.332031 7.46875 -5.0625 C 5.738281 -6.789062 4.375 -8.785156 3.375 -11.046875 C 2.375 -13.316406 1.875 -15.703125 1.875 -18.203125 C 1.875 -20.734375 2.375 -23.125 3.375 -25.375 C 4.375 -27.625 5.738281 -29.613281 7.46875 -31.34375 C 9.195312 -33.082031 11.195312 -34.453125 13.46875 -35.453125 C 15.738281 -36.453125 18.117188 -36.953125 20.609375 -36.953125 C 23.148438 -36.953125 25.546875 -36.453125 27.796875 -35.453125 C 30.046875 -34.453125 32.035156 -33.082031 33.765625 -31.34375 C 35.492188 -29.613281 36.859375 -27.625 37.859375 -25.375 C 38.859375 -23.125 39.359375 -20.734375 39.359375 -18.203125 Z M 39.359375 -18.203125 "/></g></g></g><g fill="#ffffff" fill-opacity="1"><g transform="translate(410.777511, 144.927285)"><g><path d="M 48.625 0 L 39.78125 0 L 35.5 -25.109375 L 28.375 0 L 20.515625 0 L 13.390625 -25.109375 L 9.109375 0 L 0.265625 0 L 7.328125 -36.40625 L 16.875 -36.40625 L 24.46875 -10.875 L 32.015625 -36.40625 L 41.546875 -36.40625 Z M 48.625 0 "/></g></g></g><g fill="#ffffff" fill-opacity="1"><g transform="translate(82.652872, 197.116177)"><g><path d="M 3.015625 -7.015625 L 6.296875 -7.015625 C 7.117188 -7.015625 7.789062 -7.289062 8.3125 -7.84375 C 8.851562 -8.394531 9.125 -9.085938 9.125 -9.921875 C 9.125 -10.753906 8.867188 -11.429688 8.359375 -11.953125 C 7.847656 -12.484375 7.160156 -12.75 6.296875 -12.75 L 3.015625 -12.75 Z M 10.578125 -9.875 C 10.578125 -8.644531 10.144531 -7.617188 9.28125 -6.796875 C 8.414062 -5.992188 7.351562 -5.59375 6.09375 -5.59375 L 3.015625 -5.59375 L 3.015625 0 L 1.5625 0 L 1.5625 -14.140625 L 6.09375 -14.140625 C 7.34375 -14.140625 8.40625 -13.742188 9.28125 -12.953125 C 10.144531 -12.148438 10.578125 -11.125 10.578125 -9.875 Z M 10.578125 -9.875 "/></g></g></g><g fill="#ffffff" fill-opacity="1"><g transform="translate(97.808532, 197.116177)"><g><path d="M 10.5 -4.78125 L 10.5 -4.015625 L 2.453125 -4.015625 C 2.585938 -3.222656 2.96875 -2.578125 3.59375 -2.078125 C 4.226562 -1.566406 4.9375 -1.3125 5.71875 -1.3125 C 6.25 -1.3125 6.753906 -1.4375 7.234375 -1.6875 C 7.703125 -1.914062 8.097656 -2.25 8.421875 -2.6875 L 10.09375 -2.6875 C 9.695312 -1.8125 9.113281 -1.125 8.34375 -0.625 C 7.550781 -0.113281 6.753906 0.140625 5.953125 0.140625 C 5.128906 0.140625 4.4375 0.015625 3.875 -0.234375 C 3.289062 -0.484375 2.78125 -0.820312 2.34375 -1.25 C 1.40625 -2.164062 0.9375 -3.285156 0.9375 -4.609375 C 0.9375 -5.929688 1.40625 -7.0625 2.34375 -8 C 3.28125 -8.9375 4.40625 -9.40625 5.71875 -9.40625 C 6.988281 -9.40625 8.101562 -8.953125 9.0625 -8.046875 C 10.019531 -7.128906 10.5 -6.039062 10.5 -4.78125 Z M 8.96875 -5.265625 C 8.800781 -6.035156 8.410156 -6.679688 7.796875 -7.203125 C 7.191406 -7.691406 6.5 -7.9375 5.71875 -7.9375 C 4.53125 -7.9375 3.59375 -7.40625 2.90625 -6.34375 C 2.695312 -6.007812 2.550781 -5.648438 2.46875 -5.265625 Z M 8.96875 -5.265625 "/></g></g></g><g fill="#ffffff" fill-opacity="1"><g transform="translate(113.296813, 197.116177)"><g><path d="M 6.265625 -7.265625 C 5.929688 -7.566406 5.566406 -7.71875 5.171875 -7.71875 C 4.796875 -7.71875 4.476562 -7.613281 4.21875 -7.40625 C 3.945312 -7.1875 3.71875 -6.921875 3.53125 -6.609375 C 3.1875 -6.003906 3.015625 -5.328125 3.015625 -4.578125 L 3.015625 0 L 1.5625 0 L 1.5625 -9.15625 L 3.015625 -9.15625 L 3.015625 -7.265625 L 3.078125 -7.625 C 3.566406 -8.769531 4.320312 -9.34375 5.34375 -9.34375 C 5.664062 -9.34375 5.972656 -9.28125 6.265625 -9.15625 Z M 6.265625 -7.265625 "/></g></g></g><g fill="#ffffff" fill-opacity="1"><g transform="translate(123.920361, 197.116177)"><g><path d="M 2.890625 -1.3125 C 3.253906 -1.0625 3.726562 -0.9375 4.3125 -0.9375 C 5.632812 -0.9375 6.296875 -1.4375 6.296875 -2.4375 C 6.296875 -3.019531 5.816406 -3.460938 4.859375 -3.765625 C 4.460938 -3.898438 4.035156 -4.023438 3.578125 -4.140625 C 3.109375 -4.253906 2.671875 -4.398438 2.265625 -4.578125 C 1.796875 -4.796875 1.441406 -5.070312 1.203125 -5.40625 C 0.972656 -5.738281 0.859375 -6.132812 0.859375 -6.59375 C 0.859375 -7.507812 1.175781 -8.195312 1.8125 -8.65625 C 2.445312 -9.125 3.207031 -9.359375 4.09375 -9.359375 C 4.976562 -9.359375 5.710938 -9.175781 6.296875 -8.8125 C 6.878906 -8.457031 7.273438 -7.816406 7.484375 -6.890625 L 5.921875 -6.890625 C 5.753906 -7.398438 5.515625 -7.738281 5.203125 -7.90625 C 4.890625 -8.070312 4.507812 -8.15625 4.0625 -8.15625 C 3.601562 -8.15625 3.210938 -8.054688 2.890625 -7.859375 C 2.554688 -7.648438 2.390625 -7.347656 2.390625 -6.953125 C 2.390625 -6.535156 2.53125 -6.226562 2.8125 -6.03125 C 3.070312 -5.851562 3.40625 -5.691406 3.8125 -5.546875 C 4.207031 -5.421875 4.640625 -5.3125 5.109375 -5.21875 C 5.566406 -5.101562 6.003906 -4.953125 6.421875 -4.765625 C 7.367188 -4.316406 7.84375 -3.601562 7.84375 -2.625 C 7.84375 -1.632812 7.488281 -0.90625 6.78125 -0.4375 C 6.414062 -0.195312 6.019531 -0.015625 5.59375 0.109375 C 5.175781 0.210938 4.71875 0.265625 4.21875 0.265625 C 2.101562 0.265625 0.882812 -0.675781 0.5625 -2.5625 L 2.09375 -2.5625 C 2.25 -1.957031 2.515625 -1.539062 2.890625 -1.3125 Z M 2.890625 -1.3125 "/></g></g></g><g fill="#ffffff" fill-opacity="1"><g transform="translate(136.435745, 197.116177)"><g><path d="M 9.046875 -4.609375 C 9.046875 -5.523438 8.71875 -6.3125 8.0625 -6.96875 C 7.414062 -7.613281 6.632812 -7.9375 5.71875 -7.9375 C 4.800781 -7.9375 4.019531 -7.613281 3.375 -6.96875 C 2.71875 -6.3125 2.390625 -5.523438 2.390625 -4.609375 C 2.390625 -3.710938 2.71875 -2.9375 3.375 -2.28125 C 4.019531 -1.632812 4.800781 -1.3125 5.71875 -1.3125 C 6.632812 -1.3125 7.414062 -1.632812 8.0625 -2.28125 C 8.71875 -2.9375 9.046875 -3.710938 9.046875 -4.609375 Z M 10.5 -4.609375 C 10.5 -3.285156 10.035156 -2.164062 9.109375 -1.25 C 8.148438 -0.320312 7.019531 0.140625 5.71875 0.140625 C 4.414062 0.140625 3.289062 -0.320312 2.34375 -1.25 C 1.40625 -2.164062 0.9375 -3.285156 0.9375 -4.609375 C 0.9375 -5.929688 1.40625 -7.0625 2.34375 -8 C 3.28125 -8.9375 4.40625 -9.40625 5.71875 -9.40625 C 7.03125 -9.40625 8.160156 -8.9375 9.109375 -8 C 10.035156 -7.0625 10.5 -5.929688 10.5 -4.609375 Z M 10.5 -4.609375 "/></g></g></g><g fill="#ffffff" fill-opacity="1"><g transform="translate(152.027975, 197.116177)"><g><path d="M 7.875 0 L 7.875 -5.71875 C 7.875 -6.3125 7.742188 -6.828125 7.484375 -7.265625 C 7.210938 -7.671875 6.765625 -7.875 6.140625 -7.875 C 5.515625 -7.875 5.003906 -7.757812 4.609375 -7.53125 C 4.222656 -7.289062 3.914062 -6.984375 3.6875 -6.609375 C 3.238281 -5.921875 3.015625 -4.992188 3.015625 -3.828125 L 3.015625 0 L 1.5625 0 L 1.5625 -9.15625 L 3.015625 -9.15625 L 3.015625 -7.5625 C 3.316406 -8.082031 3.707031 -8.507812 4.1875 -8.84375 C 4.675781 -9.175781 5.25 -9.34375 5.90625 -9.34375 C 6.5625 -9.34375 7.085938 -9.25 7.484375 -9.0625 C 7.890625 -8.875 8.226562 -8.617188 8.5 -8.296875 C 9.0625 -7.648438 9.34375 -6.789062 9.34375 -5.71875 L 9.34375 0 Z M 7.875 0 "/></g></g></g><g fill="#ffffff" fill-opacity="1"><g transform="translate(166.767844, 197.116177)"><g><path d="M 8.84375 -4.578125 C 8.84375 -5.460938 8.535156 -6.238281 7.921875 -6.90625 C 7.296875 -7.570312 6.523438 -7.90625 5.609375 -7.90625 C 4.703125 -7.90625 3.941406 -7.570312 3.328125 -6.90625 C 2.703125 -6.238281 2.390625 -5.460938 2.390625 -4.578125 C 2.390625 -3.691406 2.703125 -2.914062 3.328125 -2.25 C 3.941406 -1.582031 4.703125 -1.25 5.609375 -1.25 C 6.523438 -1.25 7.296875 -1.582031 7.921875 -2.25 C 8.535156 -2.914062 8.84375 -3.691406 8.84375 -4.578125 Z M 10.296875 0 L 8.84375 0 L 8.84375 -1.5625 C 8.757812 -1.445312 8.675781 -1.34375 8.59375 -1.25 C 7.71875 -0.28125 6.648438 0.203125 5.390625 0.203125 C 4.128906 0.203125 3.066406 -0.28125 2.203125 -1.25 C 1.359375 -2.1875 0.9375 -3.296875 0.9375 -4.578125 C 0.9375 -5.847656 1.359375 -6.957031 2.203125 -7.90625 C 3.066406 -8.875 4.128906 -9.359375 5.390625 -9.359375 C 6.648438 -9.359375 7.71875 -8.875 8.59375 -7.90625 C 8.675781 -7.800781 8.757812 -7.695312 8.84375 -7.59375 L 8.84375 -9.15625 L 10.296875 -9.15625 Z M 10.296875 0 "/></g></g></g><g fill="#ffffff" fill-opacity="1"><g transform="translate(182.775864, 197.116177)"><g><path d="M 3.015625 0 L 1.5625 0 L 1.5625 -15.59375 L 3.015625 -15.59375 Z M 3.015625 0 "/></g></g></g><g fill="#ffffff" fill-opacity="1"><g transform="translate(191.507562, 197.116177)"><g><path d="M 3.03125 -12.3125 C 3.21875 -12.132812 3.3125 -11.921875 3.3125 -11.671875 C 3.3125 -11.398438 3.21875 -11.175781 3.03125 -11 C 2.851562 -10.820312 2.640625 -10.734375 2.390625 -10.734375 C 2.128906 -10.734375 1.90625 -10.820312 1.71875 -11 C 1.539062 -11.175781 1.453125 -11.398438 1.453125 -11.671875 C 1.453125 -11.921875 1.539062 -12.132812 1.71875 -12.3125 C 1.90625 -12.488281 2.128906 -12.578125 2.390625 -12.578125 C 2.640625 -12.578125 2.851562 -12.488281 3.03125 -12.3125 Z M 3.125 0 L 1.65625 0 L 1.65625 -9.15625 L 3.125 -9.15625 Z M 3.125 0 "/></g></g></g><g fill="#ffffff" fill-opacity="1"><g transform="translate(200.426362, 197.116177)"><g><path d="M 0.203125 0 L 6.203125 -7.796875 L 0.5625 -7.796875 L 0.5625 -9.15625 L 8.984375 -9.15625 L 3 -1.359375 L 9.25 -1.359375 L 9.25 0 Z M 0.203125 0 "/></g></g></g><g fill="#ffffff" fill-opacity="1"><g transform="translate(214.0436, 197.116177)"><g><path d="M 10.5 -4.78125 L 10.5 -4.015625 L 2.453125 -4.015625 C 2.585938 -3.222656 2.96875 -2.578125 3.59375 -2.078125 C 4.226562 -1.566406 4.9375 -1.3125 5.71875 -1.3125 C 6.25 -1.3125 6.753906 -1.4375 7.234375 -1.6875 C 7.703125 -1.914062 8.097656 -2.25 8.421875 -2.6875 L 10.09375 -2.6875 C 9.695312 -1.8125 9.113281 -1.125 8.34375 -0.625 C 7.550781 -0.113281 6.753906 0.140625 5.953125 0.140625 C 5.128906 0.140625 4.4375 0.015625 3.875 -0.234375 C 3.289062 -0.484375 2.78125 -0.820312 2.34375 -1.25 C 1.40625 -2.164062 0.9375 -3.285156 0.9375 -4.609375 C 0.9375 -5.929688 1.40625 -7.0625 2.34375 -8 C 3.28125 -8.9375 4.40625 -9.40625 5.71875 -9.40625 C 6.988281 -9.40625 8.101562 -8.953125 9.0625 -8.046875 C 10.019531 -7.128906 10.5 -6.039062 10.5 -4.78125 Z M 8.96875 -5.265625 C 8.800781 -6.035156 8.410156 -6.679688 7.796875 -7.203125 C 7.191406 -7.691406 6.5 -7.9375 5.71875 -7.9375 C 4.53125 -7.9375 3.59375 -7.40625 2.90625 -6.34375 C 2.695312 -6.007812 2.550781 -5.648438 2.46875 -5.265625 Z M 8.96875 -5.265625 "/></g></g></g><g fill="#ffffff" fill-opacity="1"><g transform="translate(229.531889, 197.116177)"><g><path d="M 8.84375 -4.578125 C 8.84375 -5.460938 8.535156 -6.238281 7.921875 -6.90625 C 7.296875 -7.570312 6.523438 -7.90625 5.609375 -7.90625 C 4.703125 -7.90625 3.941406 -7.570312 3.328125 -6.90625 C 2.703125 -6.238281 2.390625 -5.460938 2.390625 -4.578125 C 2.390625 -3.691406 2.703125 -2.914062 3.328125 -2.25 C 3.941406 -1.582031 4.703125 -1.25 5.609375 -1.25 C 6.523438 -1.25 7.296875 -1.582031 7.921875 -2.25 C 8.535156 -2.914062 8.84375 -3.691406 8.84375 -4.578125 Z M 10.296875 0 L 8.84375 0 L 8.84375 -1.5625 C 8.757812 -1.445312 8.675781 -1.34375 8.59375 -1.25 C 7.71875 -0.28125 6.648438 0.203125 5.390625 0.203125 C 4.128906 0.203125 3.066406 -0.28125 2.203125 -1.25 C 1.359375 -2.1875 0.9375 -3.296875 0.9375 -4.578125 C 0.9375 -5.847656 1.359375 -6.957031 2.203125 -7.90625 C 3.066406 -8.875 4.128906 -9.359375 5.390625 -9.359375 C 6.648438 -9.359375 7.71875 -8.875 8.59375 -7.90625 C 8.675781 -7.800781 8.757812 -7.695312 8.84375 -7.59375 L 8.84375 -15.59375 L 10.296875 -15.59375 Z M 10.296875 0 "/></g></g></g><g fill="#ffffff" fill-opacity="1"><g transform="translate(245.539916, 197.116177)"><g/></g></g><g fill="#ffffff" fill-opacity="1"><g transform="translate(255.311098, 197.116177)"><g><path d="M 3.84375 -5.203125 L 8.984375 -5.203125 L 6.421875 -11.703125 Z M 12.625 0 L 11.046875 0 L 9.53125 -3.84375 L 3.3125 -3.84375 L 1.78125 0 L 0.203125 0 L 6.421875 -15.125 Z M 12.625 0 "/></g></g></g><g fill="#ffffff" fill-opacity="1"><g transform="translate(272.296238, 197.116177)"><g><path d="M 4.4375 0.875 L 0.203125 -9.15625 L 1.78125 -9.15625 L 4.4375 -2.34375 L 7.046875 -9.15625 L 8.625 -9.15625 Z M 4.4375 0.875 "/></g></g></g><g fill="#ffffff" fill-opacity="1"><g transform="translate(285.289797, 197.116177)"><g><path d="M 8.84375 -4.578125 C 8.84375 -5.460938 8.535156 -6.238281 7.921875 -6.90625 C 7.296875 -7.570312 6.523438 -7.90625 5.609375 -7.90625 C 4.703125 -7.90625 3.941406 -7.570312 3.328125 -6.90625 C 2.703125 -6.238281 2.390625 -5.460938 2.390625 -4.578125 C 2.390625 -3.691406 2.703125 -2.914062 3.328125 -2.25 C 3.941406 -1.582031 4.703125 -1.25 5.609375 -1.25 C 6.523438 -1.25 7.296875 -1.582031 7.921875 -2.25 C 8.535156 -2.914062 8.84375 -3.691406 8.84375 -4.578125 Z M 10.296875 0 L 8.84375 0 L 8.84375 -1.5625 C 8.757812 -1.445312 8.675781 -1.34375 8.59375 -1.25 C 7.71875 -0.28125 6.648438 0.203125 5.390625 0.203125 C 4.128906 0.203125 3.066406 -0.28125 2.203125 -1.25 C 1.359375 -2.1875 0.9375 -3.296875 0.9375 -4.578125 C 0.9375 -5.847656 1.359375 -6.957031 2.203125 -7.90625 C 3.066406 -8.875 4.128906 -9.359375 5.390625 -9.359375 C 6.648438 -9.359375 7.71875 -8.875 8.59375 -7.90625 C 8.675781 -7.800781 8.757812 -7.695312 8.84375 -7.59375 L 8.84375 -9.15625 L 10.296875 -9.15625 Z M 10.296875 0 "/></g></g></g><g fill="#ffffff" fill-opacity="1"><g transform="translate(301.297825, 197.116177)"><g><path d="M 0.421875 -7.796875 L 0.421875 -9.15625 L 2.703125 -9.15625 L 2.703125 -12.703125 L 4.15625 -12.703125 L 4.15625 -9.15625 L 6.421875 -9.15625 L 6.421875 -7.796875 L 4.15625 -7.796875 L 4.15625 0 L 2.703125 0 L 2.703125 -7.796875 Z M 0.421875 -7.796875 "/></g></g></g><g fill="#ffffff" fill-opacity="1"><g transform="translate(312.295586, 197.116177)"><g><path d="M 8.84375 -4.578125 C 8.84375 -5.460938 8.535156 -6.238281 7.921875 -6.90625 C 7.296875 -7.570312 6.523438 -7.90625 5.609375 -7.90625 C 4.703125 -7.90625 3.941406 -7.570312 3.328125 -6.90625 C 2.703125 -6.238281 2.390625 -5.460938 2.390625 -4.578125 C 2.390625 -3.691406 2.703125 -2.914062 3.328125 -2.25 C 3.941406 -1.582031 4.703125 -1.25 5.609375 -1.25 C 6.523438 -1.25 7.296875 -1.582031 7.921875 -2.25 C 8.535156 -2.914062 8.84375 -3.691406 8.84375 -4.578125 Z M 10.296875 0 L 8.84375 0 L 8.84375 -1.5625 C 8.757812 -1.445312 8.675781 -1.34375 8.59375 -1.25 C 7.71875 -0.28125 6.648438 0.203125 5.390625 0.203125 C 4.128906 0.203125 3.066406 -0.28125 2.203125 -1.25 C 1.359375 -2.1875 0.9375 -3.296875 0.9375 -4.578125 C 0.9375 -5.847656 1.359375 -6.957031 2.203125 -7.90625 C 3.066406 -8.875 4.128906 -9.359375 5.390625 -9.359375 C 6.648438 -9.359375 7.71875 -8.875 8.59375 -7.90625 C 8.675781 -7.800781 8.757812 -7.695312 8.84375 -7.59375 L 8.84375 -9.15625 L 10.296875 -9.15625 Z M 10.296875 0 "/></g></g></g><g fill="#ffffff" fill-opacity="1"><g transform="translate(328.303598, 197.116177)"><g><path d="M 6.265625 -7.265625 C 5.929688 -7.566406 5.566406 -7.71875 5.171875 -7.71875 C 4.796875 -7.71875 4.476562 -7.613281 4.21875 -7.40625 C 3.945312 -7.1875 3.71875 -6.921875 3.53125 -6.609375 C 3.1875 -6.003906 3.015625 -5.328125 3.015625 -4.578125 L 3.015625 0 L 1.5625 0 L 1.5625 -9.15625 L 3.015625 -9.15625 L 3.015625 -7.265625 L 3.078125 -7.625 C 3.566406 -8.769531 4.320312 -9.34375 5.34375 -9.34375 C 5.664062 -9.34375 5.972656 -9.28125 6.265625 -9.15625 Z M 6.265625 -7.265625 "/></g></g></g><g fill="#ffffff" fill-opacity="1"><g transform="translate(338.927139, 197.116177)"><g/></g></g><g fill="#ffffff" fill-opacity="1"><g transform="translate(348.698306, 197.116177)"><g><path d="M 14.53125 -4.328125 C 14.007812 -2.960938 13.148438 -1.875 11.953125 -1.0625 C 10.753906 -0.21875 9.429688 0.203125 7.984375 0.203125 C 6.023438 0.203125 4.351562 -0.515625 2.96875 -1.953125 C 1.613281 -3.367188 0.9375 -5.066406 0.9375 -7.046875 C 0.9375 -8.035156 1.117188 -8.972656 1.484375 -9.859375 C 1.835938 -10.734375 2.332031 -11.503906 2.96875 -12.171875 C 4.351562 -13.609375 6.023438 -14.328125 7.984375 -14.328125 C 9.429688 -14.328125 10.75 -13.921875 11.9375 -13.109375 C 13.125 -12.273438 13.984375 -11.1875 14.515625 -9.84375 L 12.921875 -9.84375 C 12.148438 -11.238281 11.007812 -12.164062 9.5 -12.625 C 9 -12.757812 8.425781 -12.828125 7.78125 -12.828125 C 7.125 -12.828125 6.457031 -12.675781 5.78125 -12.375 C 5.101562 -12.050781 4.515625 -11.628906 4.015625 -11.109375 C 2.929688 -9.984375 2.390625 -8.628906 2.390625 -7.046875 C 2.390625 -5.484375 2.929688 -4.140625 4.015625 -3.015625 C 5.109375 -1.867188 6.429688 -1.296875 7.984375 -1.296875 C 9.035156 -1.296875 10.003906 -1.570312 10.890625 -2.125 C 11.765625 -2.675781 12.445312 -3.410156 12.9375 -4.328125 Z M 14.53125 -4.328125 "/></g></g></g><g fill="#ffffff" fill-opacity="1"><g transform="translate(368.011866, 197.116177)"><g><path d="M 6.265625 -7.265625 C 5.929688 -7.566406 5.566406 -7.71875 5.171875 -7.71875 C 4.796875 -7.71875 4.476562 -7.613281 4.21875 -7.40625 C 3.945312 -7.1875 3.71875 -6.921875 3.53125 -6.609375 C 3.1875 -6.003906 3.015625 -5.328125 3.015625 -4.578125 L 3.015625 0 L 1.5625 0 L 1.5625 -9.15625 L 3.015625 -9.15625 L 3.015625 -7.265625 L 3.078125 -7.625 C 3.566406 -8.769531 4.320312 -9.34375 5.34375 -9.34375 C 5.664062 -9.34375 5.972656 -9.28125 6.265625 -9.15625 Z M 6.265625 -7.265625 "/></g></g></g><g fill="#ffffff" fill-opacity="1"><g transform="translate(378.635407, 197.116177)"><g><path d="M 10.5 -4.78125 L 10.5 -4.015625 L 2.453125 -4.015625 C 2.585938 -3.222656 2.96875 -2.578125 3.59375 -2.078125 C 4.226562 -1.566406 4.9375 -1.3125 5.71875 -1.3125 C 6.25 -1.3125 6.753906 -1.4375 7.234375 -1.6875 C 7.703125 -1.914062 8.097656 -2.25 8.421875 -2.6875 L 10.09375 -2.6875 C 9.695312 -1.8125 9.113281 -1.125 8.34375 -0.625 C 7.550781 -0.113281 6.753906 0.140625 5.953125 0.140625 C 5.128906 0.140625 4.4375 0.015625 3.875 -0.234375 C 3.289062 -0.484375 2.78125 -0.820312 2.34375 -1.25 C 1.40625 -2.164062 0.9375 -3.285156 0.9375 -4.609375 C 0.9375 -5.929688 1.40625 -7.0625 2.34375 -8 C 3.28125 -8.9375 4.40625 -9.40625 5.71875 -9.40625 C 6.988281 -9.40625 8.101562 -8.953125 9.0625 -8.046875 C 10.019531 -7.128906 10.5 -6.039062 10.5 -4.78125 Z M 8.96875 -5.265625 C 8.800781 -6.035156 8.410156 -6.679688 7.796875 -7.203125 C 7.191406 -7.691406 6.5 -7.9375 5.71875 -7.9375 C 4.53125 -7.9375 3.59375 -7.40625 2.90625 -6.34375 C 2.695312 -6.007812 2.550781 -5.648438 2.46875 -5.265625 Z M 8.96875 -5.265625 "/></g></g></g><g fill="#ffffff" fill-opacity="1"><g transform="translate(394.123681, 197.116177)"><g><path d="M 8.84375 -4.578125 C 8.84375 -5.460938 8.535156 -6.238281 7.921875 -6.90625 C 7.296875 -7.570312 6.523438 -7.90625 5.609375 -7.90625 C 4.703125 -7.90625 3.941406 -7.570312 3.328125 -6.90625 C 2.703125 -6.238281 2.390625 -5.460938 2.390625 -4.578125 C 2.390625 -3.691406 2.703125 -2.914062 3.328125 -2.25 C 3.941406 -1.582031 4.703125 -1.25 5.609375 -1.25 C 6.523438 -1.25 7.296875 -1.582031 7.921875 -2.25 C 8.535156 -2.914062 8.84375 -3.691406 8.84375 -4.578125 Z M 10.296875 0 L 8.84375 0 L 8.84375 -1.5625 C 8.757812 -1.445312 8.675781 -1.34375 8.59375 -1.25 C 7.71875 -0.28125 6.648438 0.203125 5.390625 0.203125 C 4.128906 0.203125 3.066406 -0.28125 2.203125 -1.25 C 1.359375 -2.1875 0.9375 -3.296875 0.9375 -4.578125 C 0.9375 -5.847656 1.359375 -6.957031 2.203125 -7.90625 C 3.066406 -8.875 4.128906 -9.359375 5.390625 -9.359375 C 6.648438 -9.359375 7.71875 -8.875 8.59375 -7.90625 C 8.675781 -7.800781 8.757812 -7.695312 8.84375 -7.59375 L 8.84375 -9.15625 L 10.296875 -9.15625 Z M 10.296875 0 "/></g></g></g><g fill="#ffffff" fill-opacity="1"><g transform="translate(410.131708, 197.116177)"><g><path d="M 0.421875 -7.796875 L 0.421875 -9.15625 L 2.703125 -9.15625 L 2.703125 -12.703125 L 4.15625 -12.703125 L 4.15625 -9.15625 L 6.421875 -9.15625 L 6.421875 -7.796875 L 4.15625 -7.796875 L 4.15625 0 L 2.703125 0 L 2.703125 -7.796875 Z M 0.421875 -7.796875 "/></g></g></g><g fill="#ffffff" fill-opacity="1"><g transform="translate(421.129455, 197.116177)"><g><path d="M 9.046875 -4.609375 C 9.046875 -5.523438 8.71875 -6.3125 8.0625 -6.96875 C 7.414062 -7.613281 6.632812 -7.9375 5.71875 -7.9375 C 4.800781 -7.9375 4.019531 -7.613281 3.375 -6.96875 C 2.71875 -6.3125 2.390625 -5.523438 2.390625 -4.609375 C 2.390625 -3.710938 2.71875 -2.9375 3.375 -2.28125 C 4.019531 -1.632812 4.800781 -1.3125 5.71875 -1.3125 C 6.632812 -1.3125 7.414062 -1.632812 8.0625 -2.28125 C 8.71875 -2.9375 9.046875 -3.710938 9.046875 -4.609375 Z M 10.5 -4.609375 C 10.5 -3.285156 10.035156 -2.164062 9.109375 -1.25 C 8.148438 -0.320312 7.019531 0.140625 5.71875 0.140625 C 4.414062 0.140625 3.289062 -0.320312 2.34375 -1.25 C 1.40625 -2.164062 0.9375 -3.285156 0.9375 -4.609375 C 0.9375 -5.929688 1.40625 -7.0625 2.34375 -8 C 3.28125 -8.9375 4.40625 -9.40625 5.71875 -9.40625 C 7.03125 -9.40625 8.160156 -8.9375 9.109375 -8 C 10.035156 -7.0625 10.5 -5.929688 10.5 -4.609375 Z M 10.5 -4.609375 "/></g></g></g><g fill="#ffffff" fill-opacity="1"><g transform="translate(436.721691, 197.116177)"><g><path d="M 6.265625 -7.265625 C 5.929688 -7.566406 5.566406 -7.71875 5.171875 -7.71875 C 4.796875 -7.71875 4.476562 -7.613281 4.21875 -7.40625 C 3.945312 -7.1875 3.71875 -6.921875 3.53125 -6.609375 C 3.1875 -6.003906 3.015625 -5.328125 3.015625 -4.578125 L 3.015625 0 L 1.5625 0 L 1.5625 -9.15625 L 3.015625 -9.15625 L 3.015625 -7.265625 L 3.078125 -7.625 C 3.566406 -8.769531 4.320312 -9.34375 5.34375 -9.34375 C 5.664062 -9.34375 5.972656 -9.28125 6.265625 -9.15625 Z M 6.265625 -7.265625 "/></g></g></g><g fill="#ffffff" fill-opacity="1"><g transform="translate(169.999857, 531.131347)"><g><path d="M 6.640625 -2.59375 L 2.484375 -2.59375 L 1.546875 0 L 0.1875 0 L 3.984375 -9.9375 L 5.140625 -9.9375 L 8.9375 0 L 7.59375 0 Z M 2.875 -3.671875 L 6.25 -3.671875 L 4.5625 -8.328125 Z M 2.875 -3.671875 "/></g></g></g><g fill="#ffffff" fill-opacity="1"><g transform="translate(179.12312, 531.131347)"><g/></g></g><g fill="#ffffff" fill-opacity="1"><g transform="translate(182.585317, 531.131347)"><g><path d="M 3.921875 -0.890625 C 4.367188 -0.890625 4.757812 -1.023438 5.09375 -1.296875 C 5.4375 -1.578125 5.625 -1.921875 5.65625 -2.328125 L 6.859375 -2.328125 C 6.835938 -1.898438 6.691406 -1.492188 6.421875 -1.109375 C 6.148438 -0.734375 5.789062 -0.429688 5.34375 -0.203125 C 4.894531 0.0234375 4.421875 0.140625 3.921875 0.140625 C 2.910156 0.140625 2.109375 -0.191406 1.515625 -0.859375 C 0.921875 -1.535156 0.625 -2.457031 0.625 -3.625 L 0.625 -3.84375 C 0.625 -4.5625 0.753906 -5.195312 1.015625 -5.75 C 1.285156 -6.3125 1.664062 -6.75 2.15625 -7.0625 C 2.65625 -7.375 3.238281 -7.53125 3.90625 -7.53125 C 4.738281 -7.53125 5.425781 -7.28125 5.96875 -6.78125 C 6.519531 -6.28125 6.816406 -5.632812 6.859375 -4.84375 L 5.65625 -4.84375 C 5.625 -5.320312 5.441406 -5.710938 5.109375 -6.015625 C 4.785156 -6.328125 4.382812 -6.484375 3.90625 -6.484375 C 3.269531 -6.484375 2.773438 -6.25 2.421875 -5.78125 C 2.066406 -5.320312 1.890625 -4.660156 1.890625 -3.796875 L 1.890625 -3.546875 C 1.890625 -2.703125 2.0625 -2.046875 2.40625 -1.578125 C 2.757812 -1.117188 3.265625 -0.890625 3.921875 -0.890625 Z M 3.921875 -0.890625 "/></g></g></g><g fill="#ffffff" fill-opacity="1"><g transform="translate(189.905779, 531.131347)"><g><path d="M 4.53125 -6.25 C 4.332031 -6.28125 4.125 -6.296875 3.90625 -6.296875 C 3.070312 -6.296875 2.507812 -5.945312 2.21875 -5.25 L 2.21875 0 L 0.953125 0 L 0.953125 -7.390625 L 2.1875 -7.390625 L 2.203125 -6.53125 C 2.617188 -7.195312 3.207031 -7.53125 3.96875 -7.53125 C 4.21875 -7.53125 4.40625 -7.492188 4.53125 -7.421875 Z M 4.53125 -6.25 "/></g></g></g><g fill="#ffffff" fill-opacity="1"><g transform="translate(194.638131, 531.131347)"><g><path d="M 4.015625 0.140625 C 3.015625 0.140625 2.203125 -0.1875 1.578125 -0.84375 C 0.953125 -1.507812 0.640625 -2.390625 0.640625 -3.484375 L 0.640625 -3.71875 C 0.640625 -4.457031 0.773438 -5.113281 1.046875 -5.6875 C 1.328125 -6.257812 1.71875 -6.707031 2.21875 -7.03125 C 2.726562 -7.363281 3.273438 -7.53125 3.859375 -7.53125 C 4.828125 -7.53125 5.578125 -7.210938 6.109375 -6.578125 C 6.640625 -5.941406 6.90625 -5.035156 6.90625 -3.859375 L 6.90625 -3.328125 L 1.890625 -3.328125 C 1.910156 -2.597656 2.125 -2.007812 2.53125 -1.5625 C 2.9375 -1.113281 3.457031 -0.890625 4.09375 -0.890625 C 4.539062 -0.890625 4.914062 -0.976562 5.21875 -1.15625 C 5.53125 -1.34375 5.800781 -1.585938 6.03125 -1.890625 L 6.8125 -1.296875 C 6.1875 -0.335938 5.253906 0.140625 4.015625 0.140625 Z M 3.859375 -6.484375 C 3.347656 -6.484375 2.921875 -6.296875 2.578125 -5.921875 C 2.234375 -5.554688 2.019531 -5.039062 1.9375 -4.375 L 5.640625 -4.375 L 5.640625 -4.46875 C 5.597656 -5.101562 5.421875 -5.597656 5.109375 -5.953125 C 4.804688 -6.304688 4.390625 -6.484375 3.859375 -6.484375 Z M 3.859375 -6.484375 "/></g></g></g><g fill="#ffffff" fill-opacity="1"><g transform="translate(202.047368, 531.131347)"><g><path d="M 5.515625 0 C 5.441406 -0.144531 5.382812 -0.40625 5.34375 -0.78125 C 4.75 -0.164062 4.046875 0.140625 3.234375 0.140625 C 2.503906 0.140625 1.90625 -0.0625 1.4375 -0.46875 C 0.976562 -0.882812 0.75 -1.410156 0.75 -2.046875 C 0.75 -2.816406 1.039062 -3.414062 1.625 -3.84375 C 2.207031 -4.269531 3.03125 -4.484375 4.09375 -4.484375 L 5.3125 -4.484375 L 5.3125 -5.0625 C 5.3125 -5.5 5.179688 -5.847656 4.921875 -6.109375 C 4.660156 -6.367188 4.269531 -6.5 3.75 -6.5 C 3.300781 -6.5 2.925781 -6.382812 2.625 -6.15625 C 2.320312 -5.9375 2.171875 -5.664062 2.171875 -5.34375 L 0.890625 -5.34375 C 0.890625 -5.707031 1.019531 -6.0625 1.28125 -6.40625 C 1.550781 -6.75 1.910156 -7.019531 2.359375 -7.21875 C 2.804688 -7.425781 3.296875 -7.53125 3.828125 -7.53125 C 4.679688 -7.53125 5.347656 -7.316406 5.828125 -6.890625 C 6.316406 -6.460938 6.566406 -5.875 6.578125 -5.125 L 6.578125 -1.734375 C 6.578125 -1.046875 6.664062 -0.503906 6.84375 -0.109375 L 6.84375 0 Z M 3.421875 -0.96875 C 3.816406 -0.96875 4.191406 -1.066406 4.546875 -1.265625 C 4.898438 -1.472656 5.15625 -1.738281 5.3125 -2.0625 L 5.3125 -3.578125 L 4.328125 -3.578125 C 2.773438 -3.578125 2 -3.125 2 -2.21875 C 2 -1.820312 2.128906 -1.515625 2.390625 -1.296875 C 2.660156 -1.078125 3.003906 -0.96875 3.421875 -0.96875 Z M 3.421875 -0.96875 "/></g></g></g><g fill="#ffffff" fill-opacity="1"><g transform="translate(209.654639, 531.131347)"><g><path d="M 2.671875 -9.171875 L 2.671875 -7.390625 L 4.046875 -7.390625 L 4.046875 -6.40625 L 2.671875 -6.40625 L 2.671875 -1.828125 C 2.671875 -1.535156 2.726562 -1.3125 2.84375 -1.15625 C 2.96875 -1.007812 3.179688 -0.9375 3.484375 -0.9375 C 3.628906 -0.9375 3.828125 -0.96875 4.078125 -1.03125 L 4.078125 0 C 3.742188 0.09375 3.421875 0.140625 3.109375 0.140625 C 2.546875 0.140625 2.117188 -0.03125 1.828125 -0.375 C 1.546875 -0.71875 1.40625 -1.203125 1.40625 -1.828125 L 1.40625 -6.40625 L 0.0625 -6.40625 L 0.0625 -7.390625 L 1.40625 -7.390625 L 1.40625 -9.171875 Z M 2.671875 -9.171875 "/></g></g></g><g fill="#ffffff" fill-opacity="1"><g transform="translate(214.2231, 531.131347)"><g><path d="M 2.328125 0 L 1.0625 0 L 1.0625 -7.390625 L 2.328125 -7.390625 Z M 0.96875 -9.34375 C 0.96875 -9.550781 1.03125 -9.722656 1.15625 -9.859375 C 1.28125 -10.003906 1.460938 -10.078125 1.703125 -10.078125 C 1.953125 -10.078125 2.140625 -10.003906 2.265625 -9.859375 C 2.390625 -9.722656 2.453125 -9.550781 2.453125 -9.34375 C 2.453125 -9.144531 2.390625 -8.972656 2.265625 -8.828125 C 2.140625 -8.691406 1.953125 -8.625 1.703125 -8.625 C 1.460938 -8.625 1.28125 -8.691406 1.15625 -8.828125 C 1.03125 -8.972656 0.96875 -9.144531 0.96875 -9.34375 Z M 0.96875 -9.34375 "/></g></g></g><g fill="#ffffff" fill-opacity="1"><g transform="translate(217.617008, 531.131347)"><g><path d="M 0.625 -3.765625 C 0.625 -4.484375 0.765625 -5.128906 1.046875 -5.703125 C 1.328125 -6.285156 1.722656 -6.734375 2.234375 -7.046875 C 2.742188 -7.367188 3.320312 -7.53125 3.96875 -7.53125 C 4.976562 -7.53125 5.789062 -7.179688 6.40625 -6.484375 C 7.03125 -5.785156 7.34375 -4.859375 7.34375 -3.703125 L 7.34375 -3.609375 C 7.34375 -2.890625 7.203125 -2.242188 6.921875 -1.671875 C 6.648438 -1.097656 6.257812 -0.648438 5.75 -0.328125 C 5.238281 -0.015625 4.648438 0.140625 3.984375 0.140625 C 2.984375 0.140625 2.171875 -0.207031 1.546875 -0.90625 C 0.929688 -1.601562 0.625 -2.523438 0.625 -3.671875 Z M 1.890625 -3.609375 C 1.890625 -2.796875 2.078125 -2.140625 2.453125 -1.640625 C 2.835938 -1.140625 3.347656 -0.890625 3.984375 -0.890625 C 4.628906 -0.890625 5.140625 -1.140625 5.515625 -1.640625 C 5.890625 -2.148438 6.078125 -2.859375 6.078125 -3.765625 C 6.078125 -4.578125 5.882812 -5.234375 5.5 -5.734375 C 5.125 -6.234375 4.613281 -6.484375 3.96875 -6.484375 C 3.34375 -6.484375 2.835938 -6.234375 2.453125 -5.734375 C 2.078125 -5.242188 1.890625 -4.535156 1.890625 -3.609375 Z M 1.890625 -3.609375 "/></g></g></g><g fill="#ffffff" fill-opacity="1"><g transform="translate(225.593035, 531.131347)"><g><path d="M 2.15625 -7.390625 L 2.1875 -6.453125 C 2.75 -7.171875 3.488281 -7.53125 4.40625 -7.53125 C 5.96875 -7.53125 6.753906 -6.644531 6.765625 -4.875 L 6.765625 0 L 5.5 0 L 5.5 -4.890625 C 5.5 -5.421875 5.378906 -5.8125 5.140625 -6.0625 C 4.898438 -6.320312 4.523438 -6.453125 4.015625 -6.453125 C 3.609375 -6.453125 3.25 -6.34375 2.9375 -6.125 C 2.632812 -5.90625 2.394531 -5.617188 2.21875 -5.265625 L 2.21875 0 L 0.953125 0 L 0.953125 -7.390625 Z M 2.15625 -7.390625 "/></g></g></g><g fill="#ffffff" fill-opacity="1"><g transform="translate(233.309567, 531.131347)"><g/></g></g><g fill="#ffffff" fill-opacity="1"><g transform="translate(236.771764, 531.131347)"><g><path d="M 7.203125 -3.609375 C 7.203125 -2.484375 6.941406 -1.578125 6.421875 -0.890625 C 5.910156 -0.203125 5.21875 0.140625 4.34375 0.140625 C 3.40625 0.140625 2.679688 -0.191406 2.171875 -0.859375 L 2.109375 0 L 0.953125 0 L 0.953125 -10.484375 L 2.21875 -10.484375 L 2.21875 -6.578125 C 2.726562 -7.210938 3.429688 -7.53125 4.328125 -7.53125 C 5.222656 -7.53125 5.925781 -7.1875 6.4375 -6.5 C 6.945312 -5.820312 7.203125 -4.894531 7.203125 -3.71875 Z M 5.953125 -3.75 C 5.953125 -4.613281 5.785156 -5.28125 5.453125 -5.75 C 5.117188 -6.21875 4.640625 -6.453125 4.015625 -6.453125 C 3.179688 -6.453125 2.582031 -6.066406 2.21875 -5.296875 L 2.21875 -2.09375 C 2.601562 -1.320312 3.207031 -0.9375 4.03125 -0.9375 C 4.632812 -0.9375 5.101562 -1.171875 5.4375 -1.640625 C 5.78125 -2.109375 5.953125 -2.8125 5.953125 -3.75 Z M 5.953125 -3.75 "/></g></g></g><g fill="#ffffff" fill-opacity="1"><g transform="translate(244.618043, 531.131347)"><g><path d="M 3.375 -1.84375 L 5.09375 -7.390625 L 6.453125 -7.390625 L 3.46875 1.140625 C 3.007812 2.367188 2.28125 2.984375 1.28125 2.984375 L 1.046875 2.96875 L 0.578125 2.875 L 0.578125 1.84375 L 0.921875 1.875 C 1.347656 1.875 1.679688 1.785156 1.921875 1.609375 C 2.160156 1.441406 2.351562 1.128906 2.5 0.671875 L 2.78125 -0.078125 L 0.15625 -7.390625 L 1.53125 -7.390625 Z M 3.375 -1.84375 "/></g></g></g><g fill="#ffffff" fill-opacity="1"><g transform="translate(251.23514, 531.131347)"><g/></g></g><g fill="#ffffff" fill-opacity="1"><g transform="translate(254.697337, 531.131347)"><g><path d="M 4.078125 -4.4375 C 2.953125 -4.757812 2.132812 -5.15625 1.625 -5.625 C 1.113281 -6.09375 0.859375 -6.675781 0.859375 -7.375 C 0.859375 -8.15625 1.171875 -8.800781 1.796875 -9.3125 C 2.421875 -9.820312 3.234375 -10.078125 4.234375 -10.078125 C 4.921875 -10.078125 5.53125 -9.941406 6.0625 -9.671875 C 6.601562 -9.410156 7.019531 -9.046875 7.3125 -8.578125 C 7.601562 -8.117188 7.75 -7.613281 7.75 -7.0625 L 6.4375 -7.0625 C 6.4375 -7.664062 6.242188 -8.140625 5.859375 -8.484375 C 5.472656 -8.828125 4.929688 -9 4.234375 -9 C 3.585938 -9 3.082031 -8.851562 2.71875 -8.5625 C 2.363281 -8.28125 2.1875 -7.890625 2.1875 -7.390625 C 2.1875 -6.984375 2.359375 -6.640625 2.703125 -6.359375 C 3.046875 -6.078125 3.628906 -5.820312 4.453125 -5.59375 C 5.273438 -5.363281 5.921875 -5.109375 6.390625 -4.828125 C 6.859375 -4.546875 7.203125 -4.21875 7.421875 -3.84375 C 7.648438 -3.46875 7.765625 -3.03125 7.765625 -2.53125 C 7.765625 -1.71875 7.453125 -1.066406 6.828125 -0.578125 C 6.203125 -0.0976562 5.363281 0.140625 4.3125 0.140625 C 3.625 0.140625 2.984375 0.0078125 2.390625 -0.25 C 1.804688 -0.519531 1.351562 -0.878906 1.03125 -1.328125 C 0.707031 -1.785156 0.546875 -2.300781 0.546875 -2.875 L 1.859375 -2.875 C 1.859375 -2.28125 2.082031 -1.804688 2.53125 -1.453125 C 2.976562 -1.109375 3.570312 -0.9375 4.3125 -0.9375 C 5 -0.9375 5.523438 -1.078125 5.890625 -1.359375 C 6.265625 -1.640625 6.453125 -2.023438 6.453125 -2.515625 C 6.453125 -3.003906 6.28125 -3.378906 5.9375 -3.640625 C 5.59375 -3.910156 4.972656 -4.175781 4.078125 -4.4375 Z M 4.078125 -4.4375 "/></g></g></g><g fill="#ffffff" fill-opacity="1"><g transform="translate(262.994316, 531.131347)"><g><path d="M 5.515625 0 C 5.441406 -0.144531 5.382812 -0.40625 5.34375 -0.78125 C 4.75 -0.164062 4.046875 0.140625 3.234375 0.140625 C 2.503906 0.140625 1.90625 -0.0625 1.4375 -0.46875 C 0.976562 -0.882812 0.75 -1.410156 0.75 -2.046875 C 0.75 -2.816406 1.039062 -3.414062 1.625 -3.84375 C 2.207031 -4.269531 3.03125 -4.484375 4.09375 -4.484375 L 5.3125 -4.484375 L 5.3125 -5.0625 C 5.3125 -5.5 5.179688 -5.847656 4.921875 -6.109375 C 4.660156 -6.367188 4.269531 -6.5 3.75 -6.5 C 3.300781 -6.5 2.925781 -6.382812 2.625 -6.15625 C 2.320312 -5.9375 2.171875 -5.664062 2.171875 -5.34375 L 0.890625 -5.34375 C 0.890625 -5.707031 1.019531 -6.0625 1.28125 -6.40625 C 1.550781 -6.75 1.910156 -7.019531 2.359375 -7.21875 C 2.804688 -7.425781 3.296875 -7.53125 3.828125 -7.53125 C 4.679688 -7.53125 5.347656 -7.316406 5.828125 -6.890625 C 6.316406 -6.460938 6.566406 -5.875 6.578125 -5.125 L 6.578125 -1.734375 C 6.578125 -1.046875 6.664062 -0.503906 6.84375 -0.109375 L 6.84375 0 Z M 3.421875 -0.96875 C 3.816406 -0.96875 4.191406 -1.066406 4.546875 -1.265625 C 4.898438 -1.472656 5.15625 -1.738281 5.3125 -2.0625 L 5.3125 -3.578125 L 4.328125 -3.578125 C 2.773438 -3.578125 2 -3.125 2 -2.21875 C 2 -1.820312 2.128906 -1.515625 2.390625 -1.296875 C 2.660156 -1.078125 3.003906 -0.96875 3.421875 -0.96875 Z M 3.421875 -0.96875 "/></g></g></g><g fill="#ffffff" fill-opacity="1"><g transform="translate(270.601588, 531.131347)"><g><path d="M 2.15625 -7.390625 L 2.1875 -6.453125 C 2.75 -7.171875 3.488281 -7.53125 4.40625 -7.53125 C 5.96875 -7.53125 6.753906 -6.644531 6.765625 -4.875 L 6.765625 0 L 5.5 0 L 5.5 -4.890625 C 5.5 -5.421875 5.378906 -5.8125 5.140625 -6.0625 C 4.898438 -6.320312 4.523438 -6.453125 4.015625 -6.453125 C 3.609375 -6.453125 3.25 -6.34375 2.9375 -6.125 C 2.632812 -5.90625 2.394531 -5.617188 2.21875 -5.265625 L 2.21875 0 L 0.953125 0 L 0.953125 -7.390625 Z M 2.15625 -7.390625 "/></g></g></g><g fill="#ffffff" fill-opacity="1"><g transform="translate(278.31812, 531.131347)"><g><path d="M 2.265625 -7.390625 L 2.265625 0.859375 C 2.265625 2.273438 1.617188 2.984375 0.328125 2.984375 C 0.046875 2.984375 -0.207031 2.941406 -0.4375 2.859375 L -0.4375 1.84375 C -0.289062 1.882812 -0.101562 1.90625 0.125 1.90625 C 0.40625 1.90625 0.617188 1.828125 0.765625 1.671875 C 0.921875 1.523438 1 1.257812 1 0.875 L 1 -7.390625 Z M 0.875 -9.34375 C 0.875 -9.539062 0.9375 -9.710938 1.0625 -9.859375 C 1.1875 -10.003906 1.367188 -10.078125 1.609375 -10.078125 C 1.847656 -10.078125 2.03125 -10.003906 2.15625 -9.859375 C 2.289062 -9.722656 2.359375 -9.550781 2.359375 -9.34375 C 2.359375 -9.144531 2.289062 -8.972656 2.15625 -8.828125 C 2.03125 -8.691406 1.84375 -8.625 1.59375 -8.625 C 1.351562 -8.625 1.171875 -8.691406 1.046875 -8.828125 C 0.929688 -8.972656 0.875 -9.144531 0.875 -9.34375 Z M 0.875 -9.34375 "/></g></g></g><g fill="#ffffff" fill-opacity="1"><g transform="translate(281.657399, 531.131347)"><g><path d="M 0.625 -3.765625 C 0.625 -4.484375 0.765625 -5.128906 1.046875 -5.703125 C 1.328125 -6.285156 1.722656 -6.734375 2.234375 -7.046875 C 2.742188 -7.367188 3.320312 -7.53125 3.96875 -7.53125 C 4.976562 -7.53125 5.789062 -7.179688 6.40625 -6.484375 C 7.03125 -5.785156 7.34375 -4.859375 7.34375 -3.703125 L 7.34375 -3.609375 C 7.34375 -2.890625 7.203125 -2.242188 6.921875 -1.671875 C 6.648438 -1.097656 6.257812 -0.648438 5.75 -0.328125 C 5.238281 -0.015625 4.648438 0.140625 3.984375 0.140625 C 2.984375 0.140625 2.171875 -0.207031 1.546875 -0.90625 C 0.929688 -1.601562 0.625 -2.523438 0.625 -3.671875 Z M 1.890625 -3.609375 C 1.890625 -2.796875 2.078125 -2.140625 2.453125 -1.640625 C 2.835938 -1.140625 3.347656 -0.890625 3.984375 -0.890625 C 4.628906 -0.890625 5.140625 -1.140625 5.515625 -1.640625 C 5.890625 -2.148438 6.078125 -2.859375 6.078125 -3.765625 C 6.078125 -4.578125 5.882812 -5.234375 5.5 -5.734375 C 5.125 -6.234375 4.613281 -6.484375 3.96875 -6.484375 C 3.34375 -6.484375 2.835938 -6.234375 2.453125 -5.734375 C 2.078125 -5.242188 1.890625 -4.535156 1.890625 -3.609375 Z M 1.890625 -3.609375 "/></g></g></g><g fill="#ffffff" fill-opacity="1"><g transform="translate(289.633425, 531.131347)"><g><path d="M 3.015625 -3.421875 L 2.21875 -2.59375 L 2.21875 0 L 0.96875 0 L 0.96875 -10.484375 L 2.21875 -10.484375 L 2.21875 -4.140625 L 2.90625 -4.953125 L 5.203125 -7.390625 L 6.734375 -7.390625 L 3.859375 -4.296875 L 7.078125 0 L 5.59375 0 Z M 3.015625 -3.421875 "/></g></g></g><g fill="#ffffff" fill-opacity="1"><g transform="translate(296.721709, 531.131347)"><g/></g></g><g fill="#ffffff" fill-opacity="1"><g transform="translate(300.183905, 531.131347)"><g><path d="M 2.84375 -9.9375 L 6.09375 -1.828125 L 9.34375 -9.9375 L 11.046875 -9.9375 L 11.046875 0 L 9.734375 0 L 9.734375 -3.875 L 9.859375 -8.046875 L 6.59375 0 L 5.59375 0 L 2.328125 -8.03125 L 2.46875 -3.875 L 2.46875 0 L 1.15625 0 L 1.15625 -9.9375 Z M 2.84375 -9.9375 "/></g></g></g><g fill="#ffffff" fill-opacity="1"><g transform="translate(312.393782, 531.131347)"><g><path d="M 5.515625 0 C 5.441406 -0.144531 5.382812 -0.40625 5.34375 -0.78125 C 4.75 -0.164062 4.046875 0.140625 3.234375 0.140625 C 2.503906 0.140625 1.90625 -0.0625 1.4375 -0.46875 C 0.976562 -0.882812 0.75 -1.410156 0.75 -2.046875 C 0.75 -2.816406 1.039062 -3.414062 1.625 -3.84375 C 2.207031 -4.269531 3.03125 -4.484375 4.09375 -4.484375 L 5.3125 -4.484375 L 5.3125 -5.0625 C 5.3125 -5.5 5.179688 -5.847656 4.921875 -6.109375 C 4.660156 -6.367188 4.269531 -6.5 3.75 -6.5 C 3.300781 -6.5 2.925781 -6.382812 2.625 -6.15625 C 2.320312 -5.9375 2.171875 -5.664062 2.171875 -5.34375 L 0.890625 -5.34375 C 0.890625 -5.707031 1.019531 -6.0625 1.28125 -6.40625 C 1.550781 -6.75 1.910156 -7.019531 2.359375 -7.21875 C 2.804688 -7.425781 3.296875 -7.53125 3.828125 -7.53125 C 4.679688 -7.53125 5.347656 -7.316406 5.828125 -6.890625 C 6.316406 -6.460938 6.566406 -5.875 6.578125 -5.125 L 6.578125 -1.734375 C 6.578125 -1.046875 6.664062 -0.503906 6.84375 -0.109375 L 6.84375 0 Z M 3.421875 -0.96875 C 3.816406 -0.96875 4.191406 -1.066406 4.546875 -1.265625 C 4.898438 -1.472656 5.15625 -1.738281 5.3125 -2.0625 L 5.3125 -3.578125 L 4.328125 -3.578125 C 2.773438 -3.578125 2 -3.125 2 -2.21875 C 2 -1.820312 2.128906 -1.515625 2.390625 -1.296875 C 2.660156 -1.078125 3.003906 -0.96875 3.421875 -0.96875 Z M 3.421875 -0.96875 "/></g></g></g><g fill="#ffffff" fill-opacity="1"><g transform="translate(320.001053, 531.131347)"><g><path d="M 2.15625 -7.390625 L 2.1875 -6.453125 C 2.75 -7.171875 3.488281 -7.53125 4.40625 -7.53125 C 5.96875 -7.53125 6.753906 -6.644531 6.765625 -4.875 L 6.765625 0 L 5.5 0 L 5.5 -4.890625 C 5.5 -5.421875 5.378906 -5.8125 5.140625 -6.0625 C 4.898438 -6.320312 4.523438 -6.453125 4.015625 -6.453125 C 3.609375 -6.453125 3.25 -6.34375 2.9375 -6.125 C 2.632812 -5.90625 2.394531 -5.617188 2.21875 -5.265625 L 2.21875 0 L 0.953125 0 L 0.953125 -7.390625 Z M 2.15625 -7.390625 "/></g></g></g><g fill="#ffffff" fill-opacity="1"><g transform="translate(327.717586, 531.131347)"><g><path d="M 0.65625 -3.75 C 0.65625 -4.90625 0.921875 -5.820312 1.453125 -6.5 C 1.984375 -7.1875 2.691406 -7.53125 3.578125 -7.53125 C 4.472656 -7.53125 5.175781 -7.207031 5.6875 -6.5625 L 5.75 -7.390625 L 6.890625 -7.390625 L 6.890625 -0.171875 C 6.890625 0.773438 6.609375 1.523438 6.046875 2.078125 C 5.484375 2.628906 4.722656 2.90625 3.765625 2.90625 C 3.234375 2.90625 2.710938 2.789062 2.203125 2.5625 C 1.691406 2.332031 1.300781 2.019531 1.03125 1.625 L 1.6875 0.875 C 2.226562 1.539062 2.890625 1.875 3.671875 1.875 C 4.285156 1.875 4.765625 1.703125 5.109375 1.359375 C 5.453125 1.015625 5.625 0.523438 5.625 -0.109375 L 5.625 -0.734375 C 5.125 -0.148438 4.4375 0.140625 3.5625 0.140625 C 2.695312 0.140625 1.992188 -0.207031 1.453125 -0.90625 C 0.921875 -1.601562 0.65625 -2.550781 0.65625 -3.75 Z M 1.921875 -3.609375 C 1.921875 -2.773438 2.09375 -2.117188 2.4375 -1.640625 C 2.78125 -1.171875 3.257812 -0.9375 3.875 -0.9375 C 4.664062 -0.9375 5.25 -1.296875 5.625 -2.015625 L 5.625 -5.390625 C 5.238281 -6.097656 4.660156 -6.453125 3.890625 -6.453125 C 3.273438 -6.453125 2.789062 -6.210938 2.4375 -5.734375 C 2.09375 -5.253906 1.921875 -4.546875 1.921875 -3.609375 Z M 1.921875 -3.609375 "/></g></g></g><g fill="#ffffff" fill-opacity="1"><g transform="translate(335.563865, 531.131347)"><g><path d="M 4.53125 -6.25 C 4.332031 -6.28125 4.125 -6.296875 3.90625 -6.296875 C 3.070312 -6.296875 2.507812 -5.945312 2.21875 -5.25 L 2.21875 0 L 0.953125 0 L 0.953125 -7.390625 L 2.1875 -7.390625 L 2.203125 -6.53125 C 2.617188 -7.195312 3.207031 -7.53125 3.96875 -7.53125 C 4.21875 -7.53125 4.40625 -7.492188 4.53125 -7.421875 Z M 4.53125 -6.25 "/></g></g></g><g fill="#ffffff" fill-opacity="1"><g transform="translate(340.296217, 531.131347)"><g><path d="M 5.515625 0 C 5.441406 -0.144531 5.382812 -0.40625 5.34375 -0.78125 C 4.75 -0.164062 4.046875 0.140625 3.234375 0.140625 C 2.503906 0.140625 1.90625 -0.0625 1.4375 -0.46875 C 0.976562 -0.882812 0.75 -1.410156 0.75 -2.046875 C 0.75 -2.816406 1.039062 -3.414062 1.625 -3.84375 C 2.207031 -4.269531 3.03125 -4.484375 4.09375 -4.484375 L 5.3125 -4.484375 L 5.3125 -5.0625 C 5.3125 -5.5 5.179688 -5.847656 4.921875 -6.109375 C 4.660156 -6.367188 4.269531 -6.5 3.75 -6.5 C 3.300781 -6.5 2.925781 -6.382812 2.625 -6.15625 C 2.320312 -5.9375 2.171875 -5.664062 2.171875 -5.34375 L 0.890625 -5.34375 C 0.890625 -5.707031 1.019531 -6.0625 1.28125 -6.40625 C 1.550781 -6.75 1.910156 -7.019531 2.359375 -7.21875 C 2.804688 -7.425781 3.296875 -7.53125 3.828125 -7.53125 C 4.679688 -7.53125 5.347656 -7.316406 5.828125 -6.890625 C 6.316406 -6.460938 6.566406 -5.875 6.578125 -5.125 L 6.578125 -1.734375 C 6.578125 -1.046875 6.664062 -0.503906 6.84375 -0.109375 L 6.84375 0 Z M 3.421875 -0.96875 C 3.816406 -0.96875 4.191406 -1.066406 4.546875 -1.265625 C 4.898438 -1.472656 5.15625 -1.738281 5.3125 -2.0625 L 5.3125 -3.578125 L 4.328125 -3.578125 C 2.773438 -3.578125 2 -3.125 2 -2.21875 C 2 -1.820312 2.128906 -1.515625 2.390625 -1.296875 C 2.660156 -1.078125 3.003906 -0.96875 3.421875 -0.96875 Z M 3.421875 -0.96875 "/></g></g></g><g fill="#ffffff" fill-opacity="1"><g transform="translate(347.903488, 531.131347)"><g><path d="M 2.671875 -9.171875 L 2.671875 -7.390625 L 4.046875 -7.390625 L 4.046875 -6.40625 L 2.671875 -6.40625 L 2.671875 -1.828125 C 2.671875 -1.535156 2.726562 -1.3125 2.84375 -1.15625 C 2.96875 -1.007812 3.179688 -0.9375 3.484375 -0.9375 C 3.628906 -0.9375 3.828125 -0.96875 4.078125 -1.03125 L 4.078125 0 C 3.742188 0.09375 3.421875 0.140625 3.109375 0.140625 C 2.546875 0.140625 2.117188 -0.03125 1.828125 -0.375 C 1.546875 -0.71875 1.40625 -1.203125 1.40625 -1.828125 L 1.40625 -6.40625 L 0.0625 -6.40625 L 0.0625 -7.390625 L 1.40625 -7.390625 L 1.40625 -9.171875 Z M 2.671875 -9.171875 "/></g></g></g><g fill="#ffffff" fill-opacity="1"><g transform="translate(352.471949, 531.131347)"><g><path d="M 2.328125 0 L 1.0625 0 L 1.0625 -7.390625 L 2.328125 -7.390625 Z M 0.96875 -9.34375 C 0.96875 -9.550781 1.03125 -9.722656 1.15625 -9.859375 C 1.28125 -10.003906 1.460938 -10.078125 1.703125 -10.078125 C 1.953125 -10.078125 2.140625 -10.003906 2.265625 -9.859375 C 2.390625 -9.722656 2.453125 -9.550781 2.453125 -9.34375 C 2.453125 -9.144531 2.390625 -8.972656 2.265625 -8.828125 C 2.140625 -8.691406 1.953125 -8.625 1.703125 -8.625 C 1.460938 -8.625 1.28125 -8.691406 1.15625 -8.828125 C 1.03125 -8.972656 0.96875 -9.144531 0.96875 -9.34375 Z M 0.96875 -9.34375 "/></g></g></g></svg>