<svg xmlns="http://www.w3.org/2000/svg" xmlns:xlink="http://www.w3.org/1999/xlink" width="436" zoomAndPan="magnify" viewBox="0 0 327 80.999996" height="108" preserveAspectRatio="xMidYMid meet" version="1.0"><defs><g/><clipPath id="15f4b592da"><path d="M 13.136719 14.75 L 40.082031 14.75 L 40.082031 42.328125 L 13.136719 42.328125 Z M 13.136719 14.75 " clip-rule="nonzero"/></clipPath><clipPath id="3eb4a67bd1"><path d="M 26.609375 14.75 C 19.167969 14.75 13.136719 20.917969 13.136719 28.527344 C 13.136719 36.136719 19.167969 42.304688 26.609375 42.304688 C 34.050781 42.304688 40.082031 36.136719 40.082031 28.527344 C 40.082031 20.917969 34.050781 14.75 26.609375 14.75 Z M 26.609375 14.75 " clip-rule="nonzero"/></clipPath></defs><g clip-path="url(#15f4b592da)"><g clip-path="url(#3eb4a67bd1)"><path fill="#cb3bb3" d="M 13.136719 14.75 L 40.082031 14.75 L 40.082031 42.328125 L 13.136719 42.328125 Z M 13.136719 14.75 " fill-opacity="1" fill-rule="nonzero"/></g></g><g fill="#ffffff" fill-opacity="1"><g transform="translate(19.199016, 55.303855)"><g><path d="M 40.28125 0 L 32.953125 0 L 29.40625 -20.796875 L 23.515625 0 L 16.984375 0 L 11.09375 -20.796875 L 7.546875 0 L 0.21875 0 L 6.078125 -30.171875 L 13.96875 -30.171875 L 20.265625 -9 L 26.53125 -30.171875 L 34.421875 -30.171875 Z M 40.28125 0 "/></g></g></g><g fill="#ffffff" fill-opacity="1"><g transform="translate(63.201438, 55.303855)"><g><path d="M 25.953125 -15.125 C 25.953125 -16.695312 25.535156 -18.15625 24.703125 -19.5 C 23.878906 -20.84375 22.789062 -21.925781 21.4375 -22.75 C 20.09375 -23.582031 18.640625 -24 17.078125 -24 C 15.535156 -24 14.082031 -23.582031 12.71875 -22.75 C 11.363281 -21.925781 10.269531 -20.84375 9.4375 -19.5 C 8.613281 -18.15625 8.203125 -16.695312 8.203125 -15.125 C 8.203125 -13.582031 8.613281 -12.128906 9.4375 -10.765625 C 10.269531 -9.410156 11.363281 -8.3125 12.71875 -7.46875 C 14.082031 -6.625 15.535156 -6.203125 17.078125 -6.203125 C 18.640625 -6.203125 20.09375 -6.625 21.4375 -7.46875 C 22.789062 -8.3125 23.878906 -9.410156 24.703125 -10.765625 C 25.535156 -12.128906 25.953125 -13.582031 25.953125 -15.125 Z M 32.609375 -15.078125 C 32.609375 -13.015625 32.191406 -11.039062 31.359375 -9.15625 C 30.535156 -7.28125 29.40625 -5.625 27.96875 -4.1875 C 26.53125 -2.757812 24.878906 -1.628906 23.015625 -0.796875 C 21.160156 0.0234375 19.179688 0.4375 17.078125 0.4375 C 15.003906 0.4375 13.03125 0.0234375 11.15625 -0.796875 C 9.28125 -1.628906 7.625 -2.757812 6.1875 -4.1875 C 4.75 -5.625 3.613281 -7.28125 2.78125 -9.15625 C 1.957031 -11.039062 1.546875 -13.015625 1.546875 -15.078125 C 1.546875 -17.179688 1.957031 -19.164062 2.78125 -21.03125 C 3.613281 -22.894531 4.75 -24.539062 6.1875 -25.96875 C 7.625 -27.40625 9.28125 -28.535156 11.15625 -29.359375 C 13.03125 -30.191406 15.003906 -30.609375 17.078125 -30.609375 C 19.179688 -30.609375 21.160156 -30.191406 23.015625 -29.359375 C 24.878906 -28.535156 26.53125 -27.40625 27.96875 -25.96875 C 29.40625 -24.539062 30.535156 -22.894531 31.359375 -21.03125 C 32.191406 -19.164062 32.609375 -17.179688 32.609375 -15.078125 Z M 32.609375 -15.078125 "/></g></g></g><g fill="#ffffff" fill-opacity="1"><g transform="translate(100.86089, 55.303855)"><g><path d="M 9.234375 -6.125 L 11.21875 -6.125 C 12.9375 -6.125 14.4375 -6.519531 15.71875 -7.3125 C 17.007812 -8.113281 18.015625 -9.191406 18.734375 -10.546875 C 19.460938 -11.910156 19.828125 -13.421875 19.828125 -15.078125 C 19.828125 -16.765625 19.460938 -18.28125 18.734375 -19.625 C 18.015625 -20.96875 17.007812 -22.03125 15.71875 -22.8125 C 14.4375 -23.601562 12.9375 -24 11.21875 -24 L 9.234375 -24 Z M 2.65625 -30.171875 L 11.625 -30.171875 C 13.75 -30.171875 15.71875 -29.785156 17.53125 -29.015625 C 19.351562 -28.242188 20.945312 -27.175781 22.3125 -25.8125 C 23.675781 -24.457031 24.734375 -22.863281 25.484375 -21.03125 C 26.234375 -19.195312 26.609375 -17.210938 26.609375 -15.078125 C 26.609375 -12.953125 26.234375 -10.972656 25.484375 -9.140625 C 24.734375 -7.304688 23.679688 -5.707031 22.328125 -4.34375 C 20.984375 -2.988281 19.394531 -1.925781 17.5625 -1.15625 C 15.726562 -0.382812 13.75 0 11.625 0 L 2.65625 0 Z M 2.65625 -30.171875 "/></g></g></g><g fill="#ffffff" fill-opacity="1"><g transform="translate(132.532217, 55.303855)"><g><path d="M 19.078125 -11.53125 L 15.265625 -22.265625 L 11.4375 -11.53125 Z M 30.34375 0 L 23.203125 0 L 21.03125 -6.078125 L 9.53125 -6.078125 L 7.359375 0 L 0.21875 0 L 12.46875 -30.171875 L 18.09375 -30.171875 Z M 30.34375 0 "/></g></g></g><g fill="#ffffff" fill-opacity="1"><g transform="translate(166.5988, 55.303855)"><g><path d="M 2.65625 0 L 2.65625 -30.171875 L 9.3125 -30.171875 L 9.3125 -6.03125 L 20.140625 -6.03125 L 20.140625 0 Z M 2.65625 0 "/></g></g></g><g fill="#ffffff" fill-opacity="1"><g transform="translate(191.794096, 55.303855)"><g><path d="M 25.953125 -15.125 C 25.953125 -16.695312 25.535156 -18.15625 24.703125 -19.5 C 23.878906 -20.84375 22.789062 -21.925781 21.4375 -22.75 C 20.09375 -23.582031 18.640625 -24 17.078125 -24 C 15.535156 -24 14.082031 -23.582031 12.71875 -22.75 C 11.363281 -21.925781 10.269531 -20.84375 9.4375 -19.5 C 8.613281 -18.15625 8.203125 -16.695312 8.203125 -15.125 C 8.203125 -13.582031 8.613281 -12.128906 9.4375 -10.765625 C 10.269531 -9.410156 11.363281 -8.3125 12.71875 -7.46875 C 14.082031 -6.625 15.535156 -6.203125 17.078125 -6.203125 C 18.640625 -6.203125 20.09375 -6.625 21.4375 -7.46875 C 22.789062 -8.3125 23.878906 -9.410156 24.703125 -10.765625 C 25.535156 -12.128906 25.953125 -13.582031 25.953125 -15.125 Z M 32.609375 -15.078125 C 32.609375 -13.015625 32.191406 -11.039062 31.359375 -9.15625 C 30.535156 -7.28125 29.40625 -5.625 27.96875 -4.1875 C 26.53125 -2.757812 24.878906 -1.628906 23.015625 -0.796875 C 21.160156 0.0234375 19.179688 0.4375 17.078125 0.4375 C 15.003906 0.4375 13.03125 0.0234375 11.15625 -0.796875 C 9.28125 -1.628906 7.625 -2.757812 6.1875 -4.1875 C 4.75 -5.625 3.613281 -7.28125 2.78125 -9.15625 C 1.957031 -11.039062 1.546875 -13.015625 1.546875 -15.078125 C 1.546875 -17.179688 1.957031 -19.164062 2.78125 -21.03125 C 3.613281 -22.894531 4.75 -24.539062 6.1875 -25.96875 C 7.625 -27.40625 9.28125 -28.535156 11.15625 -29.359375 C 13.03125 -30.191406 15.003906 -30.609375 17.078125 -30.609375 C 19.179688 -30.609375 21.160156 -30.191406 23.015625 -29.359375 C 24.878906 -28.535156 26.53125 -27.40625 27.96875 -25.96875 C 29.40625 -24.539062 30.535156 -22.894531 31.359375 -21.03125 C 32.191406 -19.164062 32.609375 -17.179688 32.609375 -15.078125 Z M 32.609375 -15.078125 "/></g></g></g><g fill="#ffffff" fill-opacity="1"><g transform="translate(229.453544, 55.303855)"><g><path d="M 25.953125 -15.125 C 25.953125 -16.695312 25.535156 -18.15625 24.703125 -19.5 C 23.878906 -20.84375 22.789062 -21.925781 21.4375 -22.75 C 20.09375 -23.582031 18.640625 -24 17.078125 -24 C 15.535156 -24 14.082031 -23.582031 12.71875 -22.75 C 11.363281 -21.925781 10.269531 -20.84375 9.4375 -19.5 C 8.613281 -18.15625 8.203125 -16.695312 8.203125 -15.125 C 8.203125 -13.582031 8.613281 -12.128906 9.4375 -10.765625 C 10.269531 -9.410156 11.363281 -8.3125 12.71875 -7.46875 C 14.082031 -6.625 15.535156 -6.203125 17.078125 -6.203125 C 18.640625 -6.203125 20.09375 -6.625 21.4375 -7.46875 C 22.789062 -8.3125 23.878906 -9.410156 24.703125 -10.765625 C 25.535156 -12.128906 25.953125 -13.582031 25.953125 -15.125 Z M 32.609375 -15.078125 C 32.609375 -13.015625 32.191406 -11.039062 31.359375 -9.15625 C 30.535156 -7.28125 29.40625 -5.625 27.96875 -4.1875 C 26.53125 -2.757812 24.878906 -1.628906 23.015625 -0.796875 C 21.160156 0.0234375 19.179688 0.4375 17.078125 0.4375 C 15.003906 0.4375 13.03125 0.0234375 11.15625 -0.796875 C 9.28125 -1.628906 7.625 -2.757812 6.1875 -4.1875 C 4.75 -5.625 3.613281 -7.28125 2.78125 -9.15625 C 1.957031 -11.039062 1.546875 -13.015625 1.546875 -15.078125 C 1.546875 -17.179688 1.957031 -19.164062 2.78125 -21.03125 C 3.613281 -22.894531 4.75 -24.539062 6.1875 -25.96875 C 7.625 -27.40625 9.28125 -28.535156 11.15625 -29.359375 C 13.03125 -30.191406 15.003906 -30.609375 17.078125 -30.609375 C 19.179688 -30.609375 21.160156 -30.191406 23.015625 -29.359375 C 24.878906 -28.535156 26.53125 -27.40625 27.96875 -25.96875 C 29.40625 -24.539062 30.535156 -22.894531 31.359375 -21.03125 C 32.191406 -19.164062 32.609375 -17.179688 32.609375 -15.078125 Z M 32.609375 -15.078125 "/></g></g></g><g fill="#ffffff" fill-opacity="1"><g transform="translate(267.112992, 55.303855)"><g><path d="M 40.28125 0 L 32.953125 0 L 29.40625 -20.796875 L 23.515625 0 L 16.984375 0 L 11.09375 -20.796875 L 7.546875 0 L 0.21875 0 L 6.078125 -30.171875 L 13.96875 -30.171875 L 20.265625 -9 L 26.53125 -30.171875 L 34.421875 -30.171875 Z M 40.28125 0 "/></g></g></g></svg>